# xmcd CD database file
#
# Track frame offsets:
#	182
#	12095
#	27715
#	39342
#	55880
#	68392
#	85797
#	104505
#	120992
#	149445
#	170335
#	184025
#
# Disc length: 2532 seconds
#
# Revision: 0
# Processed by: cddbd v1.5PL3 Copyright (c) Steve Scherf et al.
# Submitted via: CDex 1.51
#
DISCID=9509e20c
DTITLE=Marc Thomas  - Le Soir 
DYEAR=2001
DGENRE=Jazz
TTITLE0=Sweet Lorraine
TTITLE1=Heureux Tous les Deux 
TTITLE2=Le Soir 
TTITLE3=Si un Jour 
TTITLE4=Tete D'affiche a Brodway 
TTITLE5=Laura 
TTITLE6=Pourquoi
TTITLE7=Les parapluie de Cherbourg 
TTITLE8=La javanaise 
TTITLE9=L'amour C'est Comme Un jour 
TTITLE10=La Lune est Grise et Mon coeur Aussi 
TTITLE11=Bonus Track Le soir 
EXTD=YEAR: 2001
EXTT0=
EXTT1=
EXTT2=
EXTT3=
EXTT4=
EXTT5=
EXTT6=
EXTT7=
EXTT8=
EXTT9=
EXTT10=
EXTT11=
PLAYORDER=
